# xmcd CD database file
#
# Track frame offsets:
#	150
#	16261
#	32681
#	48231
#	62906
#	79336
#	93171
#	106886
#	125081
#	144646
#	160206
#	171986
#
# Disc length: 2476 seconds
#
# Revision: 5
# Processed by: cddbd v1.5.2PL0 Copyright (c) Steve Scherf et al.
# Submitted via: CDex 1.50
#
DISCID=9d09aa0c
DTITLE=Verschiedene - American Hearts - The New Country Generation CD02
DYEAR=2005
DGENRE=Country
TTITLE0=She's a Miracle (Exile)
TTITLE1=Backroads (Ricky van Shelton)
TTITLE2=As Simple As That (Mike Reid)
TTITLE3=Bobbie Ann Mason (Rick Trevino)
TTITLE4=Old Enough to Know Better (Wade Hayes)
TTITLE5=That's My Story (Collin Rye)
TTITLE6=Who's That Girl (Stephanie Bentley)
TTITLE7=Heart Like a Hurricane (Larry Stewart)
TTITLE8=Guys Do It All the Time (Mindy McCready)
TTITLE9=Lucky In Love (Sherrié Austin)
TTITLE10=That's What I'm Working on Tonight (Dixiana)
TTITLE11=To Be With You (Larry Boone)
EXTD=(c)2005 Sony Music Media aG\nupc 5099751961628 (2 CD Box) YEAR: 2005
EXTT0=
EXTT1=
EXTT2=
EXTT3=
EXTT4=
EXTT5=
EXTT6=
EXTT7=
EXTT8=
EXTT9=
EXTT10=
EXTT11=
PLAYORDER=
